<?xml version="1.0" standalone="no"?>
<!DOCTYPE svg PUBLIC "-//W3C//DTD SVG 20010904//EN"
 "http://www.w3.org/TR/2001/REC-SVG-20010904/DTD/svg10.dtd">
<svg version="1.0" xmlns="http://www.w3.org/2000/svg"
 width="640.000000pt" height="640.000000pt" viewBox="0 0 640.000000 640.000000"
 preserveAspectRatio="xMidYMid meet">
<metadata>
Created by potrace 1.14, written by Peter Selinger 2001-2017
</metadata>
<g transform="translate(0.000000,640.000000) scale(0.100000,-0.100000)"
fill="#000000" stroke="none">
<path d="M1665 5441 c-2 -1 -34 -4 -72 -6 -37 -2 -75 -5 -83 -8 -47 -14 -80
-30 -80 -38 0 -5 -6 -9 -13 -9 -19 0 -83 -75 -106 -125 -11 -23 -22 -60 -26
-82 -7 -51 -10 -202 -3 -208 3 -3 2 -25 -2 -49 -3 -23 -3 -51 0 -62 4 -10 4
-30 0 -44 -3 -14 -3 -42 0 -62 4 -21 5 -40 3 -42 -6 -6 -7 -216 -1 -222 3 -2
2 -24 -2 -48 -3 -23 -3 -51 0 -62 4 -10 4 -30 0 -44 -3 -14 -3 -42 0 -62 4
-21 5 -40 3 -42 -5 -4 -6 -206 -2 -223 1 -5 1 -11 0 -15 -1 -9 -1 -86 0 -108
0 -8 0 -62 0 -120 -1 -114 -1 -121 -1 -193 l0 -47 -115 2 c-63 2 -115 -1 -115
-5 0 -5 -4 -6 -8 -3 -7 4 -61 7 -114 6 -10 -1 -38 -1 -63 -1 -25 0 -51 0 -57
0 -7 0 -69 0 -138 1 -69 0 -129 0 -135 -1 -5 -1 -13 -1 -17 0 -27 4 -229 1
-258 -4 -142 -26 -257 -165 -258 -311 0 -158 112 -294 260 -318 46 -7 277 -11
283 -4 3 3 22 2 43 -2 20 -3 48 -3 62 0 14 4 34 4 44 0 11 -3 39 -3 62 0 24 4
46 5 48 2 5 -4 229 -6 251 -1 6 1 14 1 19 0 13 -3 129 -3 141 -1 6 1 14 2 19
1 13 -3 129 -3 141 -1 6 1 14 2 19 1 10 -2 129 -3 136 -1 3 0 37 2 75 4 39 2
77 6 85 9 46 14 80 30 80 38 0 5 6 9 13 9 19 0 83 75 106 125 28 59 31 91 31
260 0 11 0 39 0 61 1 23 0 46 -1 50 -1 5 -1 12 0 17 4 17 3 219 -1 223 -3 2
-2 24 2 48 3 23 3 51 0 62 -4 10 -4 30 0 44 3 14 3 42 0 62 -4 21 -5 40 -3 42
6 6 7 216 1 222 -3 2 -2 24 2 48 3 23 4 51 0 60 -3 10 -3 42 0 72 3 30 4 56 2
59 -4 3 -5 134 -2 153 2 10 1 127 -1 138 -1 5 0 14 1 19 1 6 1 27 0 47 -1 27
4 39 18 47 11 6 22 8 25 5 3 -3 26 -5 51 -4 54 1 41 1 191 0 66 -1 125 -1 130
0 6 1 14 2 19 1 11 -2 128 -3 141 -1 6 1 46 1 90 0 44 0 128 -1 188 -1 l107
-1 1 -27 c1 -14 0 -30 -1 -36 -2 -12 -2 -126 1 -140 1 -5 0 -14 -1 -20 -2 -12
-2 -197 0 -210 2 -6 2 -12 1 -15 -4 -12 -3 -212 1 -216 3 -2 2 -23 -2 -44 -4
-22 -4 -42 0 -45 4 -2 4 -24 0 -48 -3 -24 -4 -51 0 -61 3 -9 3 -44 0 -79 -3
-34 -2 -81 1 -105 3 -23 3 -44 1 -47 -6 -5 -5 -205 0 -211 3 -2 2 -23 -2 -44
-4 -22 -3 -43 1 -46 5 -3 7 -9 4 -14 -5 -8 -6 -48 -5 -170 1 -41 0 -79 0 -85
-2 -13 -1 -130 1 -141 1 -5 1 -13 0 -19 -5 -22 -3 -246 1 -251 3 -2 2 -24 -2
-48 -3 -23 -3 -51 0 -62 4 -10 4 -30 0 -44 -3 -14 -3 -42 0 -62 4 -21 5 -40 2
-43 -4 -3 -4 -244 -1 -273 1 -4 0 -11 -1 -17 -2 -12 -2 -128 1 -141 1 -5 0
-13 -1 -19 -2 -12 -2 -198 1 -211 1 -5 1 -11 0 -14 -4 -12 -3 -212 1 -216 3
-2 2 -23 -2 -44 -4 -22 -3 -43 1 -46 5 -3 7 -9 4 -14 -13 -21 -5 -234 11 -286
32 -107 138 -201 244 -217 36 -6 147 -10 165 -7 6 1 13 2 17 1 14 -2 213 -2
223 -1 6 1 14 2 19 1 7 -2 57 -2 106 0 8 0 69 0 135 -1 66 -1 125 -1 130 0 6
2 14 2 19 1 13 -3 129 -3 141 -1 6 1 13 2 17 1 29 -3 270 -3 273 1 3 3 22 2
43 -2 20 -3 48 -3 62 0 14 4 34 4 44 0 11 -3 39 -3 62 0 24 4 46 5 49 2 6 -7
157 -4 208 3 22 4 59 15 82 26 50 23 125 87 125 106 0 7 4 13 9 13 8 0 24 34
38 80 3 8 7 47 9 85 2 39 4 72 4 75 2 7 1 126 -1 136 -1 5 0 14 1 19 2 12 2
128 -1 141 -1 5 0 14 1 19 2 12 2 128 -1 141 -1 5 0 14 1 19 2 12 2 128 -1
141 -1 5 0 14 1 19 2 12 2 128 -1 141 -1 5 0 14 1 19 2 12 2 128 -1 141 -1 5
0 14 1 19 2 12 2 128 -1 141 -1 5 0 14 1 19 2 12 2 128 -1 141 -1 5 0 14 1 19
2 12 2 128 -1 141 -1 5 0 14 1 19 1 6 1 27 0 47 -1 27 4 39 18 47 11 6 22 8
25 5 3 -3 26 -5 51 -4 54 1 41 1 191 0 66 -1 125 -1 130 0 6 1 14 2 19 1 11
-2 128 -3 141 -1 6 0 44 1 85 0 85 -1 157 0 168 1 4 1 9 1 12 0 14 -6 110 -5
110 0 0 3 11 4 24 2 14 -3 54 5 89 16 77 26 149 90 187 166 35 70 35 197 0
269 -47 98 -144 169 -248 181 -48 5 -206 9 -227 5 -5 -1 -14 -2 -19 -1 -13 3
-199 3 -211 1 -5 -1 -14 -2 -19 -1 -13 3 -129 3 -141 1 -5 -1 -13 -2 -17 -1
-29 3 -270 3 -273 -1 -3 -3 -22 -2 -43 2 -20 3 -48 3 -62 0 -14 -4 -34 -4 -44
0 -11 3 -39 3 -62 0 -24 -4 -46 -5 -49 -2 -6 7 -157 4 -208 -3 -22 -4 -59 -15
-82 -26 -50 -23 -125 -87 -125 -106 0 -7 -4 -13 -9 -13 -8 0 -26 -39 -38 -80
-9 -32 -14 -98 -13 -170 1 -41 1 -82 1 -90 -1 -27 -1 -100 0 -108 1 -4 0 -11
-1 -17 -1 -10 -1 -209 1 -223 1 -4 1 -11 0 -17 -5 -27 -1 -257 4 -265 4 -6 3
-10 -2 -10 -8 0 -9 -97 -1 -106 3 -2 2 -24 -2 -48 -3 -23 -3 -51 0 -62 4 -10
4 -32 0 -49 -3 -16 -3 -44 0 -61 4 -16 4 -38 0 -49 -3 -10 -4 -37 -1 -59 4
-23 4 -59 1 -81 -3 -22 -2 -59 1 -83 3 -23 3 -42 0 -42 -5 0 -6 -80 -1 -105 9
-44 5 -46 -115 -43 -63 2 -115 -1 -115 -5 0 -5 -4 -6 -8 -3 -7 4 -61 7 -114 6
-10 -1 -38 -1 -63 -1 -25 0 -51 0 -57 0 -7 0 -67 1 -133 1 -66 1 -125 1 -130
0 -6 -1 -14 -2 -20 -1 -14 3 -128 3 -140 1 -5 -1 -22 -2 -36 -1 l-27 1 -1 108
c0 59 -1 143 -1 187 -1 44 -1 85 0 90 2 13 1 130 -1 141 -1 5 -1 14 0 19 5 22
3 246 -1 251 -3 2 -2 24 2 48 3 23 3 51 0 62 -4 10 -4 30 0 44 3 14 3 42 0 62
-4 21 -5 40 -2 43 4 3 4 244 1 273 -1 4 0 12 1 17 2 12 2 128 -1 141 -1 5 0
14 1 19 2 12 2 198 -1 211 -1 5 -1 11 0 14 4 12 3 212 -1 216 -3 2 -2 23 2 44
4 22 4 42 0 45 -4 2 -4 24 0 48 3 24 4 51 0 61 -3 9 -3 44 0 79 3 34 2 81 -1
105 -3 23 -3 44 -1 47 6 5 5 205 0 211 -3 2 -2 23 2 44 4 22 3 43 -1 46 -5 3
-7 9 -4 14 5 8 6 48 5 170 -1 41 0 80 0 85 2 13 1 130 -1 141 -1 5 -1 14 0 19
3 13 3 248 0 255 -1 3 -1 8 0 12 5 35 -3 205 -11 238 -10 39 -45 96 -83 134
-63 64 -123 89 -230 93 -110 5 -175 4 -185 -2 -5 -3 -11 -1 -14 4 -3 4 -24 5
-46 1 -21 -4 -42 -5 -44 -2 -4 4 -204 5 -216 1 -3 -1 -9 -1 -13 0 -13 2 -210
3 -222 0 -5 -1 -13 -1 -17 0 -14 2 -213 2 -223 1 -5 -1 -14 -2 -19 -1 -7 2
-57 2 -106 0 -8 0 -69 0 -135 1 -66 1 -124 1 -130 0 -5 -1 -21 -1 -35 0 -48 4
-122 5 -125 1z"/>
</g>
</svg>
